<svg xmlns="http://www.w3.org/2000/svg" viewBox="0 0 420 420" role="img" aria-label="Birthday candles">
  <path d="M86 274 C114 230 310 230 334 274 L318 336 C290 364 126 364 101 336Z" fill="#F7F0D8" stroke="#45171B" stroke-width="5"/>
  <path d="M100 274 C136 304 283 306 334 274" fill="none" stroke="#AAAE8D" stroke-width="12" stroke-linecap="round"/>
  <g>
    <rect x="132" y="132" width="28" height="120" rx="10" fill="#45171B"/>
    <rect x="196" y="108" width="28" height="144" rx="10" fill="#6D252C"/>
    <rect x="260" y="132" width="28" height="120" rx="10" fill="#45171B"/>
    <path d="M146 84 C123 111 136 131 146 137 C160 126 169 109 146 84Z" fill="#D8B56B" stroke="#45171B" stroke-width="4"/>
    <path d="M210 58 C187 86 199 106 210 113 C224 101 234 84 210 58Z" fill="#D8B56B" stroke="#45171B" stroke-width="4"/>
    <path d="M274 84 C252 111 263 131 274 137 C289 126 298 108 274 84Z" fill="#D8B56B" stroke="#45171B" stroke-width="4"/>
  </g>
  <path d="M112 330 C164 350 254 352 310 330" fill="none" stroke="#45171B" stroke-width="5" opacity=".45"/>
</svg>
