<svg xmlns="http://www.w3.org/2000/svg" viewBox="0 0 420 420" role="img" aria-label="Wrapped birthday gift">
  <defs>
    <linearGradient id="box" x1="0" x2="1" y1="0" y2="1">
      <stop offset="0" stop-color="#7A2A32"/>
      <stop offset="1" stop-color="#45171B"/>
    </linearGradient>
  </defs>
  <rect x="74" y="172" width="272" height="178" rx="18" fill="url(#box)" stroke="#2E1013" stroke-width="5"/>
  <rect x="56" y="132" width="308" height="70" rx="16" fill="#5F1F26" stroke="#2E1013" stroke-width="5"/>
  <rect x="189" y="132" width="42" height="218" fill="#F7F0D8"/>
  <rect x="56" y="158" width="308" height="24" fill="#AAAE8D" opacity=".86"/>
  <path d="M203 129 C148 104 134 62 163 47 C196 29 216 72 210 126" fill="#AAAE8D" stroke="#45171B" stroke-width="5"/>
  <path d="M217 129 C270 101 286 63 257 47 C224 29 205 74 210 126" fill="#AAAE8D" stroke="#45171B" stroke-width="5"/>
  <path d="M210 132 C196 94 188 67 164 48" fill="none" stroke="#F7F0D8" stroke-width="4" opacity=".8"/>
  <path d="M212 132 C226 92 235 66 257 48" fill="none" stroke="#F7F0D8" stroke-width="4" opacity=".8"/>
</svg>
